# xmcd
#
# Track frame offsets:
#      150
#      12210
#      29553
#      45493
#      59755
#      80670
#      92950
#      104885
#      118920
#      134685
#      150450
#      166850
#      180108
#      192343
# 
# Disc length: 2723 seconds
#
# Revision: 2
# Processed by: cddbd v1.4PL0 Copyright (c) Steve Scherf et al.
#
# Submitted via: FreeRIP 1.21
#
DISCID=c10aa10e
DTITLE=Klic - Vetrne mlyny
DYEAR=1995
DGENRE=Folk
TTITLE0=Sejdiri
TTITLE1=Beda porazenym
TTITLE2=Lidska komedie
TTITLE3=Jen jednu noc
TTITLE4=Tam v bile plani
TTITLE5=Posledni sanson
TTITLE6=Hade
TTITLE7=Ctihodni
TTITLE8=Balada o vecne lasce
TTITLE9=Narek
TTITLE10=Krizovy kral
TTITLE11=Promoklas
TTITLE12=Dal plyne cas
TTITLE13=Quijote
EXTD=
EXTT0=
EXTT1=
EXTT2=
EXTT3=
EXTT4=
EXTT5=
EXTT6=
EXTT7=
EXTT8=
EXTT9=
EXTT10=
EXTT11=
EXTT12=
EXTT13=
PLAYORDER=
